<mxfile host="app.diagrams.net" modified="2023-04-10T11:10:43.130Z" agent="Mozilla/5.0 (X11; Linux x86_64; rv:109.0) Gecko/20100101 Firefox/111.0" etag="Uv_ySZWfyGNQoNpX2LNo" version="21.1.5">
  <diagram name="Page-1" id="5f0bae14-7c28-e335-631c-24af17079c00">
    <mxGraphModel dx="1098" dy="1172" grid="1" gridSize="10" guides="1" tooltips="1" connect="1" arrows="1" fold="1" page="1" pageScale="1" pageWidth="1100" pageHeight="850" background="none" math="0" shadow="0">
      <root>
        <mxCell id="0" />
        <mxCell id="1" parent="0" />
        <mxCell id="39150e848f15840c-1" value="Air Quality Frontend" style="verticalAlign=top;align=left;spacingTop=8;spacingLeft=2;spacingRight=12;shape=cube;size=10;direction=south;fontStyle=4;html=1;rounded=0;shadow=0;comic=0;labelBackgroundColor=none;strokeWidth=1;fontFamily=Verdana;fontSize=12" parent="1" vertex="1">
          <mxGeometry x="20" y="207" width="330" height="220" as="geometry" />
        </mxCell>
        <mxCell id="39150e848f15840c-2" value="Air Quality Backend" style="verticalAlign=top;align=left;spacingTop=8;spacingLeft=2;spacingRight=12;shape=cube;size=10;direction=south;fontStyle=4;html=1;rounded=0;shadow=0;comic=0;labelBackgroundColor=none;strokeWidth=1;fontFamily=Verdana;fontSize=12;movable=1;resizable=1;rotatable=1;deletable=1;editable=1;locked=0;connectable=1;" parent="1" vertex="1">
          <mxGeometry x="430" y="130" width="530" height="360" as="geometry" />
        </mxCell>
        <mxCell id="2irHC9dXGDUrdTcjcfWd-2" value="&lt;div&gt;«component»&lt;/div&gt;&lt;div&gt;Web App&lt;br&gt;&lt;/div&gt;" style="html=1;dropTarget=0;whiteSpace=wrap;fontSize=16;" vertex="1" parent="1">
          <mxGeometry x="90" y="271" width="180" height="90" as="geometry" />
        </mxCell>
        <mxCell id="2irHC9dXGDUrdTcjcfWd-3" value="" style="shape=module;jettyWidth=8;jettyHeight=4;fontSize=16;" vertex="1" parent="2irHC9dXGDUrdTcjcfWd-2">
          <mxGeometry x="1" width="20" height="20" relative="1" as="geometry">
            <mxPoint x="-27" y="7" as="offset" />
          </mxGeometry>
        </mxCell>
        <mxCell id="2irHC9dXGDUrdTcjcfWd-4" value="" style="rounded=0;orthogonalLoop=1;jettySize=auto;html=1;endArrow=none;endFill=0;sketch=0;sourcePerimeterSpacing=0;targetPerimeterSpacing=0;fontSize=12;startSize=8;endSize=8;curved=1;exitX=0;exitY=0.5;exitDx=0;exitDy=0;" edge="1" target="2irHC9dXGDUrdTcjcfWd-6" parent="1" source="2irHC9dXGDUrdTcjcfWd-9">
          <mxGeometry relative="1" as="geometry">
            <mxPoint x="360" y="312" as="sourcePoint" />
          </mxGeometry>
        </mxCell>
        <mxCell id="2irHC9dXGDUrdTcjcfWd-5" value="" style="rounded=0;orthogonalLoop=1;jettySize=auto;html=1;endArrow=halfCircle;endFill=0;entryX=0.5;entryY=0.5;endSize=6;strokeWidth=1;sketch=0;fontSize=12;curved=1;exitX=1;exitY=0.25;exitDx=0;exitDy=0;" edge="1" target="2irHC9dXGDUrdTcjcfWd-6" parent="1" source="2irHC9dXGDUrdTcjcfWd-2">
          <mxGeometry relative="1" as="geometry">
            <mxPoint x="400" y="335" as="sourcePoint" />
          </mxGeometry>
        </mxCell>
        <mxCell id="2irHC9dXGDUrdTcjcfWd-6" value="" style="ellipse;whiteSpace=wrap;html=1;align=center;aspect=fixed;resizable=0;points=[];outlineConnect=0;sketch=0;fontSize=16;" vertex="1" parent="1">
          <mxGeometry x="440" y="244" width="10" height="10" as="geometry" />
        </mxCell>
        <mxCell id="2irHC9dXGDUrdTcjcfWd-35" style="edgeStyle=none;curved=1;rounded=0;orthogonalLoop=1;jettySize=auto;html=1;exitX=1;exitY=0.5;exitDx=0;exitDy=0;entryX=0;entryY=0.5;entryDx=0;entryDy=0;fontSize=12;startSize=8;endSize=8;dashed=1;" edge="1" parent="1" source="2irHC9dXGDUrdTcjcfWd-9" target="2irHC9dXGDUrdTcjcfWd-31">
          <mxGeometry relative="1" as="geometry" />
        </mxCell>
        <mxCell id="2irHC9dXGDUrdTcjcfWd-42" style="edgeStyle=none;curved=1;rounded=0;orthogonalLoop=1;jettySize=auto;html=1;exitX=1;exitY=0.5;exitDx=0;exitDy=0;entryX=0;entryY=0.5;entryDx=0;entryDy=0;fontSize=12;startSize=8;endSize=8;dashed=1;" edge="1" parent="1" source="2irHC9dXGDUrdTcjcfWd-9" target="2irHC9dXGDUrdTcjcfWd-40">
          <mxGeometry relative="1" as="geometry" />
        </mxCell>
        <mxCell id="2irHC9dXGDUrdTcjcfWd-9" value="&lt;div&gt;«component»&lt;/div&gt;&lt;div&gt;AirQualityController&lt;br&gt;&lt;/div&gt;" style="html=1;dropTarget=0;whiteSpace=wrap;fontSize=16;" vertex="1" parent="1">
          <mxGeometry x="480" y="214" width="180" height="70" as="geometry" />
        </mxCell>
        <mxCell id="2irHC9dXGDUrdTcjcfWd-10" value="" style="shape=module;jettyWidth=8;jettyHeight=4;fontSize=16;" vertex="1" parent="2irHC9dXGDUrdTcjcfWd-9">
          <mxGeometry x="1" width="20" height="20" relative="1" as="geometry">
            <mxPoint x="-27" y="7" as="offset" />
          </mxGeometry>
        </mxCell>
        <mxCell id="2irHC9dXGDUrdTcjcfWd-36" style="edgeStyle=none;curved=1;rounded=0;orthogonalLoop=1;jettySize=auto;html=1;exitX=1;exitY=0.5;exitDx=0;exitDy=0;fontSize=12;startSize=8;endSize=8;dashed=1;entryX=0;entryY=0.5;entryDx=0;entryDy=0;" edge="1" parent="1" source="2irHC9dXGDUrdTcjcfWd-11" target="2irHC9dXGDUrdTcjcfWd-33">
          <mxGeometry relative="1" as="geometry">
            <mxPoint x="710" y="430.20000000000005" as="targetPoint" />
          </mxGeometry>
        </mxCell>
        <mxCell id="2irHC9dXGDUrdTcjcfWd-11" value="&lt;div&gt;«component»&lt;/div&gt;&lt;div&gt;CacheStatsController&lt;br&gt;&lt;/div&gt;" style="html=1;dropTarget=0;whiteSpace=wrap;fontSize=16;" vertex="1" parent="1">
          <mxGeometry x="480" y="350" width="180" height="60" as="geometry" />
        </mxCell>
        <mxCell id="2irHC9dXGDUrdTcjcfWd-12" value="" style="shape=module;jettyWidth=8;jettyHeight=4;fontSize=16;" vertex="1" parent="2irHC9dXGDUrdTcjcfWd-11">
          <mxGeometry x="1" width="20" height="20" relative="1" as="geometry">
            <mxPoint x="-27" y="7" as="offset" />
          </mxGeometry>
        </mxCell>
        <mxCell id="2irHC9dXGDUrdTcjcfWd-15" value="" style="rounded=0;orthogonalLoop=1;jettySize=auto;html=1;endArrow=none;endFill=0;sketch=0;sourcePerimeterSpacing=0;targetPerimeterSpacing=0;fontSize=12;startSize=8;endSize=8;curved=1;exitX=0.003;exitY=0.397;exitDx=0;exitDy=0;exitPerimeter=0;" edge="1" target="2irHC9dXGDUrdTcjcfWd-17" parent="1" source="2irHC9dXGDUrdTcjcfWd-11">
          <mxGeometry relative="1" as="geometry">
            <mxPoint x="380" y="407" as="sourcePoint" />
          </mxGeometry>
        </mxCell>
        <mxCell id="2irHC9dXGDUrdTcjcfWd-16" value="" style="rounded=0;orthogonalLoop=1;jettySize=auto;html=1;endArrow=halfCircle;endFill=0;entryX=0.5;entryY=0.5;endSize=6;strokeWidth=1;sketch=0;fontSize=12;curved=1;exitX=1;exitY=0.75;exitDx=0;exitDy=0;" edge="1" target="2irHC9dXGDUrdTcjcfWd-17" parent="1" source="2irHC9dXGDUrdTcjcfWd-2">
          <mxGeometry relative="1" as="geometry">
            <mxPoint x="480" y="435" as="sourcePoint" />
          </mxGeometry>
        </mxCell>
        <mxCell id="2irHC9dXGDUrdTcjcfWd-17" value="" style="ellipse;whiteSpace=wrap;html=1;align=center;aspect=fixed;resizable=0;points=[];outlineConnect=0;sketch=0;fontSize=16;" vertex="1" parent="1">
          <mxGeometry x="440" y="370" width="10" height="10" as="geometry" />
        </mxCell>
        <mxCell id="2irHC9dXGDUrdTcjcfWd-18" value="&lt;div style=&quot;font-size: 12px;&quot;&gt;&lt;font style=&quot;font-size: 12px;&quot;&gt;Cache&lt;/font&gt;&lt;/div&gt;&lt;div style=&quot;font-size: 12px;&quot;&gt;&lt;font style=&quot;font-size: 12px;&quot;&gt;Statistics&lt;font style=&quot;font-size: 12px;&quot;&gt;&lt;br&gt;&lt;/font&gt;&lt;/font&gt;&lt;/div&gt;" style="text;html=1;align=center;verticalAlign=middle;resizable=0;points=[];autosize=1;strokeColor=none;fillColor=none;fontSize=16;" vertex="1" parent="1">
          <mxGeometry x="360" y="368" width="70" height="40" as="geometry" />
        </mxCell>
        <mxCell id="2irHC9dXGDUrdTcjcfWd-19" value="&lt;div style=&quot;font-size: 15px;&quot;&gt;&lt;font style=&quot;font-size: 12px;&quot;&gt;AirQuality&lt;/font&gt;&lt;/div&gt;&lt;div style=&quot;font-size: 12px;&quot;&gt;&lt;font style=&quot;font-size: 12px;&quot;&gt;Data&lt;font style=&quot;font-size: 12px;&quot;&gt;&lt;font style=&quot;font-size: 15px;&quot;&gt;&lt;br&gt;&lt;/font&gt;&lt;/font&gt;&lt;/font&gt;&lt;/div&gt;" style="text;html=1;align=center;verticalAlign=middle;resizable=0;points=[];autosize=1;strokeColor=none;fillColor=none;fontSize=16;" vertex="1" parent="1">
          <mxGeometry x="360" y="266" width="80" height="50" as="geometry" />
        </mxCell>
        <mxCell id="2irHC9dXGDUrdTcjcfWd-20" value="&lt;div&gt;«component»&lt;/div&gt;&lt;div&gt;NinjaAPI&lt;br&gt;&lt;/div&gt;" style="html=1;dropTarget=0;whiteSpace=wrap;fontSize=16;" vertex="1" parent="1">
          <mxGeometry x="1090" y="270" width="180" height="70" as="geometry" />
        </mxCell>
        <mxCell id="2irHC9dXGDUrdTcjcfWd-21" value="" style="shape=module;jettyWidth=8;jettyHeight=4;fontSize=16;" vertex="1" parent="2irHC9dXGDUrdTcjcfWd-20">
          <mxGeometry x="1" width="20" height="20" relative="1" as="geometry">
            <mxPoint x="-27" y="7" as="offset" />
          </mxGeometry>
        </mxCell>
        <mxCell id="2irHC9dXGDUrdTcjcfWd-22" value="&lt;div&gt;«component»&lt;/div&gt;&lt;div&gt;OpenWeatherAPI&lt;br&gt;&lt;/div&gt;" style="html=1;dropTarget=0;whiteSpace=wrap;fontSize=16;" vertex="1" parent="1">
          <mxGeometry x="1090" y="370" width="180" height="70" as="geometry" />
        </mxCell>
        <mxCell id="2irHC9dXGDUrdTcjcfWd-23" value="" style="shape=module;jettyWidth=8;jettyHeight=4;fontSize=16;" vertex="1" parent="2irHC9dXGDUrdTcjcfWd-22">
          <mxGeometry x="1" width="20" height="20" relative="1" as="geometry">
            <mxPoint x="-27" y="7" as="offset" />
          </mxGeometry>
        </mxCell>
        <mxCell id="2irHC9dXGDUrdTcjcfWd-24" value="" style="rounded=0;orthogonalLoop=1;jettySize=auto;html=1;endArrow=none;endFill=0;sketch=0;sourcePerimeterSpacing=0;targetPerimeterSpacing=0;fontSize=12;startSize=8;endSize=8;curved=1;exitX=1;exitY=0.5;exitDx=0;exitDy=0;" edge="1" target="2irHC9dXGDUrdTcjcfWd-26" parent="1" source="2irHC9dXGDUrdTcjcfWd-31">
          <mxGeometry relative="1" as="geometry">
            <mxPoint x="898" y="303" as="sourcePoint" />
          </mxGeometry>
        </mxCell>
        <mxCell id="2irHC9dXGDUrdTcjcfWd-25" value="" style="rounded=0;orthogonalLoop=1;jettySize=auto;html=1;endArrow=halfCircle;endFill=0;entryX=0.5;entryY=0.5;endSize=6;strokeWidth=1;sketch=0;fontSize=12;curved=1;exitX=0;exitY=0.5;exitDx=0;exitDy=0;" edge="1" target="2irHC9dXGDUrdTcjcfWd-26" parent="1" source="2irHC9dXGDUrdTcjcfWd-20">
          <mxGeometry relative="1" as="geometry">
            <mxPoint x="938" y="298" as="sourcePoint" />
          </mxGeometry>
        </mxCell>
        <mxCell id="2irHC9dXGDUrdTcjcfWd-30" style="edgeStyle=none;curved=1;rounded=0;orthogonalLoop=1;jettySize=auto;html=1;fontSize=12;startSize=8;endSize=8;entryX=0;entryY=0.5;entryDx=0;entryDy=0;endArrow=none;endFill=0;" edge="1" parent="1" source="2irHC9dXGDUrdTcjcfWd-26" target="2irHC9dXGDUrdTcjcfWd-22">
          <mxGeometry relative="1" as="geometry" />
        </mxCell>
        <mxCell id="2irHC9dXGDUrdTcjcfWd-26" value="" style="ellipse;whiteSpace=wrap;html=1;align=center;aspect=fixed;resizable=0;points=[];outlineConnect=0;sketch=0;fontSize=16;" vertex="1" parent="1">
          <mxGeometry x="913" y="298" width="10" height="10" as="geometry" />
        </mxCell>
        <mxCell id="2irHC9dXGDUrdTcjcfWd-37" style="edgeStyle=none;curved=1;rounded=0;orthogonalLoop=1;jettySize=auto;html=1;exitX=0.5;exitY=1;exitDx=0;exitDy=0;entryX=0.5;entryY=0;entryDx=0;entryDy=0;fontSize=12;startSize=8;endSize=8;dashed=1;" edge="1" parent="1" source="2irHC9dXGDUrdTcjcfWd-31" target="2irHC9dXGDUrdTcjcfWd-33">
          <mxGeometry relative="1" as="geometry" />
        </mxCell>
        <mxCell id="2irHC9dXGDUrdTcjcfWd-48" style="edgeStyle=none;curved=1;rounded=0;orthogonalLoop=1;jettySize=auto;html=1;exitX=0.5;exitY=0;exitDx=0;exitDy=0;entryX=0.5;entryY=1;entryDx=0;entryDy=0;fontSize=12;startSize=8;endSize=8;dashed=1;" edge="1" parent="1" source="2irHC9dXGDUrdTcjcfWd-31" target="2irHC9dXGDUrdTcjcfWd-40">
          <mxGeometry relative="1" as="geometry" />
        </mxCell>
        <mxCell id="2irHC9dXGDUrdTcjcfWd-31" value="&lt;div&gt;«component»&lt;/div&gt;&lt;div&gt;AirQualityService&lt;br&gt;&lt;/div&gt;" style="html=1;dropTarget=0;whiteSpace=wrap;fontSize=16;" vertex="1" parent="1">
          <mxGeometry x="710" y="277" width="180" height="52" as="geometry" />
        </mxCell>
        <mxCell id="2irHC9dXGDUrdTcjcfWd-32" value="" style="shape=module;jettyWidth=8;jettyHeight=4;fontSize=16;" vertex="1" parent="2irHC9dXGDUrdTcjcfWd-31">
          <mxGeometry x="1" width="20" height="20" relative="1" as="geometry">
            <mxPoint x="-27" y="7" as="offset" />
          </mxGeometry>
        </mxCell>
        <mxCell id="2irHC9dXGDUrdTcjcfWd-33" value="&lt;div&gt;«component»&lt;/div&gt;&lt;div&gt;CacheService&lt;br&gt;&lt;/div&gt;" style="html=1;dropTarget=0;whiteSpace=wrap;fontSize=16;" vertex="1" parent="1">
          <mxGeometry x="710" y="358" width="180" height="60" as="geometry" />
        </mxCell>
        <mxCell id="2irHC9dXGDUrdTcjcfWd-34" value="" style="shape=module;jettyWidth=8;jettyHeight=4;fontSize=16;" vertex="1" parent="2irHC9dXGDUrdTcjcfWd-33">
          <mxGeometry x="1" width="20" height="20" relative="1" as="geometry">
            <mxPoint x="-27" y="7" as="offset" />
          </mxGeometry>
        </mxCell>
        <mxCell id="2irHC9dXGDUrdTcjcfWd-38" value="&lt;div&gt;«component»&lt;/div&gt;&lt;div&gt;GeocodeAPI&lt;br&gt;&lt;/div&gt;" style="html=1;dropTarget=0;whiteSpace=wrap;fontSize=16;" vertex="1" parent="1">
          <mxGeometry x="1090" y="164" width="180" height="70" as="geometry" />
        </mxCell>
        <mxCell id="2irHC9dXGDUrdTcjcfWd-39" value="" style="shape=module;jettyWidth=8;jettyHeight=4;fontSize=16;" vertex="1" parent="2irHC9dXGDUrdTcjcfWd-38">
          <mxGeometry x="1" width="20" height="20" relative="1" as="geometry">
            <mxPoint x="-27" y="7" as="offset" />
          </mxGeometry>
        </mxCell>
        <mxCell id="2irHC9dXGDUrdTcjcfWd-40" value="&lt;div&gt;«component»&lt;/div&gt;&lt;div&gt;CityService&lt;br&gt;&lt;/div&gt;" style="html=1;dropTarget=0;whiteSpace=wrap;fontSize=16;" vertex="1" parent="1">
          <mxGeometry x="710" y="170" width="180" height="60" as="geometry" />
        </mxCell>
        <mxCell id="2irHC9dXGDUrdTcjcfWd-41" value="" style="shape=module;jettyWidth=8;jettyHeight=4;fontSize=16;" vertex="1" parent="2irHC9dXGDUrdTcjcfWd-40">
          <mxGeometry x="1" width="20" height="20" relative="1" as="geometry">
            <mxPoint x="-27" y="7" as="offset" />
          </mxGeometry>
        </mxCell>
        <mxCell id="2irHC9dXGDUrdTcjcfWd-44" value="" style="rounded=0;orthogonalLoop=1;jettySize=auto;html=1;endArrow=none;endFill=0;sketch=0;sourcePerimeterSpacing=0;targetPerimeterSpacing=0;fontSize=12;startSize=8;endSize=8;curved=1;exitX=1;exitY=0.5;exitDx=0;exitDy=0;" edge="1" target="2irHC9dXGDUrdTcjcfWd-46" parent="1" source="2irHC9dXGDUrdTcjcfWd-40">
          <mxGeometry relative="1" as="geometry">
            <mxPoint x="1000" y="195" as="sourcePoint" />
          </mxGeometry>
        </mxCell>
        <mxCell id="2irHC9dXGDUrdTcjcfWd-45" value="" style="rounded=0;orthogonalLoop=1;jettySize=auto;html=1;endArrow=halfCircle;endFill=0;entryX=0.5;entryY=0.5;endSize=6;strokeWidth=1;sketch=0;fontSize=12;curved=1;exitX=0;exitY=0.5;exitDx=0;exitDy=0;" edge="1" target="2irHC9dXGDUrdTcjcfWd-46" parent="1" source="2irHC9dXGDUrdTcjcfWd-38">
          <mxGeometry relative="1" as="geometry">
            <mxPoint x="1040" y="195" as="sourcePoint" />
          </mxGeometry>
        </mxCell>
        <mxCell id="2irHC9dXGDUrdTcjcfWd-46" value="" style="ellipse;whiteSpace=wrap;html=1;align=center;aspect=fixed;resizable=0;points=[];outlineConnect=0;sketch=0;fontSize=16;" vertex="1" parent="1">
          <mxGeometry x="913" y="195" width="10" height="10" as="geometry" />
        </mxCell>
        <mxCell id="2irHC9dXGDUrdTcjcfWd-50" value="&lt;div&gt;&lt;font style=&quot;font-size: 12px;&quot;&gt;City&lt;/font&gt;&lt;/div&gt;&lt;div&gt;&lt;font style=&quot;font-size: 12px;&quot;&gt;&amp;nbsp;Mapping&lt;/font&gt;&lt;/div&gt;" style="text;html=1;align=center;verticalAlign=middle;resizable=0;points=[];autosize=1;strokeColor=none;fillColor=none;fontSize=16;" vertex="1" parent="1">
          <mxGeometry x="980" y="199" width="70" height="50" as="geometry" />
        </mxCell>
        <mxCell id="2irHC9dXGDUrdTcjcfWd-52" value="&lt;div style=&quot;font-size: 15px;&quot;&gt;&lt;font style=&quot;font-size: 15px;&quot;&gt;Raw&lt;/font&gt;&lt;/div&gt;&lt;div style=&quot;font-size: 15px;&quot;&gt;&lt;font style=&quot;font-size: 15px;&quot;&gt;Data&lt;font style=&quot;font-size: 15px;&quot;&gt;&lt;br&gt;&lt;/font&gt;&lt;/font&gt;&lt;/div&gt;" style="text;html=1;align=center;verticalAlign=middle;resizable=0;points=[];autosize=1;strokeColor=none;fillColor=none;fontSize=16;" vertex="1" parent="1">
          <mxGeometry x="893" y="311" width="50" height="50" as="geometry" />
        </mxCell>
      </root>
    </mxGraphModel>
  </diagram>
</mxfile>
